Coordinates
version=1
nRows=21
nColumns=12
inDegrees=yes

Units are S.I. units (second, meters, Newtons, ...)
Angles are in degrees

endheader
time	SC_y	SC_z	SC_x	AC_y	AC_z	AC_x	GH_y	GH_z	GH_yy	EL_x	PS_y
       0.0               -43.2          9.633          64.63          52.67         -17.89          8.345         -56.13          7.053         -37.69          44.95          33.15
   0.01879               -43.2          9.635          64.63          52.67         -17.88          8.344         -56.13          7.053         -37.68          44.95          33.15
   0.03758              -43.19          9.638          64.63          52.67         -17.88          8.343         -56.13          7.053         -37.67          44.95          33.15
   0.05636              -43.19          9.641          64.63          52.67         -17.88          8.341         -56.13          7.053         -37.66          44.96          33.15
   0.07515              -43.18          9.643          64.62          52.66         -17.88           8.34         -56.13          7.053         -37.65          44.96          33.14
   0.09394              -43.18          9.646          64.62          52.66         -17.88          8.339         -56.13          7.053         -37.64          44.97          33.14
    0.1127              -43.17          9.649          64.62          52.66         -17.88          8.337         -56.13          7.053         -37.63          44.97          33.14
    0.1315              -43.16          9.653          64.62          52.65         -17.87          8.336         -56.13          7.053         -37.62          44.98          33.14
    0.1503              -43.16          9.656          64.62          52.65         -17.87          8.334         -56.13          7.053          -37.6          44.98          33.14
    0.1691              -43.15           9.66          64.62          52.65         -17.87          8.333         -56.13          7.053         -37.59          44.99          33.14
    0.1879              -43.14          9.665          64.62          52.64         -17.87          8.331         -56.13          7.053         -37.57           45.0          33.14
    0.2067              -43.13          9.669          64.62          52.64         -17.87          8.329         -56.13          7.052         -37.55           45.0          33.13
    0.2255              -43.13          9.674          64.61          52.63         -17.86          8.327         -56.13          7.052         -37.53          45.01          33.13
    0.2442              -43.12          9.679          64.61          52.63         -17.86          8.324         -56.13          7.052         -37.51          45.02          33.13
     0.263              -43.11          9.685          64.61          52.62         -17.86          8.322         -56.13          7.052         -37.49          45.03          33.13
    0.2818              -43.09          9.691          64.61          52.62         -17.85          8.319         -56.13          7.052         -37.47          45.04          33.12
    0.3006              -43.08          9.698          64.61          52.61         -17.85          8.316         -56.13          7.052         -37.44          45.05          33.12
    0.3194              -43.07          9.705           64.6          52.61         -17.84          8.313         -56.13          7.052         -37.41          45.06          33.12
    0.3382              -43.05          9.713           64.6           52.6         -17.84          8.309         -56.13          7.051         -37.38          45.07          33.12
     0.357              -43.04          9.721           64.6          52.59         -17.84          8.306         -56.14          7.051         -37.35          45.09          33.11
    0.3758              -43.02          9.731           64.6          52.58         -17.83          8.301         -56.14          7.051         -37.31           45.1          33.11
